<svg width="100%" height="100%" style="" viewBox="0 0 22 22" fill="none" xmlns="http://www.w3.org/2000/svg">
<path d="M13.2122 1.89714L13.2122 1.89712C13.2339 1.8265 13.2694 1.76085 13.3165 1.70392C13.3635 1.64698 13.4214 1.59988 13.4867 1.5653C13.552 1.53072 13.6234 1.50934 13.697 1.50238C13.7706 1.49542 13.8448 1.50302 13.9154 1.52473C13.986 1.54645 14.0517 1.58187 14.1086 1.62896C14.1655 1.67605 14.2126 1.73389 14.2472 1.79919C14.2818 1.86448 14.3032 1.93594 14.3101 2.0095C14.3171 2.08306 14.3095 2.15727 14.2878 2.22789L8.78778 20.1029L8.78777 20.1029C8.74391 20.2455 8.64519 20.3649 8.51332 20.4347C8.38145 20.5045 8.22724 20.5191 8.08462 20.4753C7.94199 20.4314 7.82263 20.3327 7.7528 20.2008C7.68296 20.069 7.66837 19.9148 7.71222 19.7721C7.71222 19.7721 7.71223 19.7721 7.71223 19.7721L13.2122 1.89714ZM6.58597 6.58576L6.58588 6.58585L2.25875 10.9116L2.17032 11L2.25875 11.0884L6.58586 15.4141C6.58587 15.4141 6.58587 15.4142 6.58588 15.4142C6.69152 15.5198 6.75087 15.6631 6.75087 15.8125C6.75087 15.9619 6.69151 16.1052 6.58586 16.2109C6.48021 16.3165 6.33692 16.3759 6.1875 16.3759C6.03809 16.3759 5.89479 16.3165 5.78914 16.2109L0.976639 11.3984L0.976527 11.3983C0.924144 11.346 0.882583 11.2839 0.854226 11.2156C0.825868 11.1473 0.811272 11.074 0.811272 11C0.811272 10.926 0.825868 10.8528 0.854226 10.7844C0.882583 10.7161 0.924144 10.654 0.976527 10.6018L0.976639 10.6016L5.78914 5.78914L5.78925 5.78903C5.8415 5.73665 5.90357 5.69509 5.97191 5.66673C6.04025 5.63837 6.11351 5.62378 6.1875 5.62378C6.26149 5.62378 6.33475 5.63837 6.40309 5.66673C6.47143 5.69509 6.5335 5.73665 6.58575 5.78903L6.6742 5.7008L6.58597 5.78926C6.63836 5.84151 6.67992 5.90358 6.70828 5.97192C6.73663 6.04026 6.75123 6.11352 6.75123 6.18751C6.75123 6.26149 6.73663 6.33476 6.70828 6.40309C6.67992 6.47143 6.63836 6.5335 6.58597 6.58576ZM15.4141 6.58585L15.414 6.58576C15.3616 6.5335 15.3201 6.47143 15.2917 6.40309C15.2634 6.33476 15.2488 6.26149 15.2488 6.18751C15.2488 6.11352 15.2634 6.04026 15.2917 5.97192C15.3201 5.90358 15.3616 5.84151 15.414 5.78926L15.3258 5.70076L15.4143 5.78903C15.4665 5.73665 15.5286 5.69509 15.5969 5.66673C15.6653 5.63837 15.7385 5.62378 15.8125 5.62378C15.8865 5.62378 15.9597 5.63837 16.0281 5.66673C16.0964 5.69509 16.1585 5.73665 16.2108 5.78903L16.2109 5.78914L21.0234 10.6016L21.0235 10.6018C21.0759 10.654 21.1174 10.7161 21.1458 10.7844C21.1741 10.8528 21.1887 10.926 21.1887 11C21.1887 11.074 21.1741 11.1473 21.1458 11.2156C21.1174 11.2839 21.0759 11.346 21.0235 11.3983L21.0234 11.3984L16.2109 16.2109C16.1585 16.2632 16.0964 16.3047 16.0281 16.333C15.9597 16.3613 15.8865 16.3759 15.8125 16.3759C15.7385 16.3759 15.6653 16.3613 15.5969 16.333C15.5286 16.3047 15.4665 16.2632 15.4141 16.2109C15.3618 16.1586 15.3203 16.0964 15.292 16.0281C15.2637 15.9597 15.2491 15.8865 15.2491 15.8125C15.2491 15.7385 15.2637 15.6653 15.292 15.5969C15.3203 15.5286 15.3618 15.4665 15.4141 15.4142C15.4141 15.4142 15.4141 15.4141 15.4141 15.4141L19.7412 11.0884L19.8297 11L19.7412 10.9116L15.4141 6.58585Z" fill="white" stroke="black" stroke-width="0.25"/>
</svg>